<svg xmlns="http://www.w3.org/2000/svg" viewBox="0 0 38.47 36.69"><defs><style>.cls-1{fill:none;stroke:#fff;stroke-linecap:round;stroke-linejoin:round;stroke-width:2px;}</style></defs><g id="Capa_2" data-name="Capa 2"><g id="OBJECTS"><path class="cls-1" d="M36.09,15.4,23.51,2.91C21.14.6,20,.37,17.33,2.31L2.72,13C0,15,.55,16.77,3.85,17l1.56.11-1,13.27a3.62,3.62,0,0,0,3.35,3.86l4.51.32.57-7.9a5.61,5.61,0,0,1,11.19.8l-.56,7.9,4.52.32a3.61,3.61,0,0,0,3.85-3.35l1-13.27,1.55.12C37.7,19.41,38.46,17.71,36.09,15.4Z"/></g></g></svg>