<svg xmlns="http://www.w3.org/2000/svg" viewBox="0 0 36.17 38.83"><defs><style>.cls-1{fill:none;stroke:#fff;stroke-linecap:round;stroke-linejoin:round;stroke-width:2px;}.cls-2{fill:#df0000;}</style></defs><g id="Capa_2" data-name="Capa 2"><g id="OBJECTS"><path class="cls-1" d="M29.3,4.2H6.88A5.87,5.87,0,0,0,1,10.07V26.18a5.88,5.88,0,0,0,5.88,5.88h6.47l4.79,5.77,4.71-5.77H29.3a5.87,5.87,0,0,0,5.87-5.88V10.07A5.87,5.87,0,0,0,29.3,4.2Z"/><line class="cls-1" x1="9.78" y1="15.44" x2="26.39" y2="15.44"/><line class="cls-1" x1="14.27" y1="22.79" x2="21.9" y2="22.79"/><path class="cls-2" d="M33.49,4.2A4.2,4.2,0,1,1,29.3,0,4.19,4.19,0,0,1,33.49,4.2Z"/></g></g></svg>