<svg xmlns="http://www.w3.org/2000/svg" xmlns:xlink="http://www.w3.org/1999/xlink" viewBox="0 0 40.1 48.38"><defs><style>.cls-1{fill:#fff;}.cls-2{fill:none;stroke-miterlimit:10;stroke-width:2px;stroke:url(#New_Gradient_Swatch);}.cls-3{fill:#df0000;}</style><linearGradient id="New_Gradient_Swatch" y1="20.05" x2="40.1" y2="20.05" gradientUnits="userSpaceOnUse"><stop offset="0" stop-color="#00bfab"/><stop offset="0.48"/><stop offset="1" stop-color="#df0000"/></linearGradient></defs><g id="Capa_2" data-name="Capa 2"><g id="OBJECTS"><path d="M39.1,20.05a19.05,19.05,0,1,1-19-19A19.05,19.05,0,0,1,39.1,20.05Z"/><path class="cls-1" d="M13.84,38.05H26.26a19,19,0,0,0,6.61-3.94,13.47,13.47,0,0,0-25.64,0A19,19,0,0,0,13.84,38.05Z"/><path class="cls-1" d="M27.92,15.51a7.87,7.87,0,1,1-7.87-7.87A7.87,7.87,0,0,1,27.92,15.51Z"/><path class="cls-2" d="M39.1,20.05a19.05,19.05,0,1,1-19-19A19.05,19.05,0,0,1,39.1,20.05Z"/><path class="cls-3" d="M27,41.42a7,7,0,1,1-7-7A7,7,0,0,1,27,41.42Z"/><path class="cls-1" d="M23,41.11H20.82V38.93a.65.65,0,0,0-1.3,0v2.18H17.35a.65.65,0,1,0,0,1.3h2.17v2.17a.65.65,0,1,0,1.3,0V42.41H23a.65.65,0,1,0,0-1.3Z"/></g></g></svg>