<svg xmlns="http://www.w3.org/2000/svg" viewBox="0 0 39.6 24.98"><defs><style>.cls-1{fill:none;stroke:#fff;stroke-linecap:round;stroke-linejoin:round;stroke-width:2px;}.cls-2{fill:#00bfab;}.cls-3{fill:#df0000;}</style></defs><g id="Capa_2" data-name="Capa 2"><g id="OBJECTS"><rect x="4.59" width="30.63" height="24.98" rx="5.27"/><line class="cls-1" x1="19.91" y1="7.81" x2="19.91" y2="17.17"/><line class="cls-1" x1="24.59" y1="12.49" x2="15.23" y2="12.49"/><path class="cls-2" d="M4.59,19.71V5.27A5.27,5.27,0,0,1,9.86,0H5.27A5.27,5.27,0,0,0,0,5.27V19.71A5.27,5.27,0,0,0,5.27,25H9.86A5.27,5.27,0,0,1,4.59,19.71Z"/><path class="cls-3" d="M35,5.27V19.71A5.27,5.27,0,0,1,29.73,25h4.6a5.27,5.27,0,0,0,5.27-5.27V5.27A5.27,5.27,0,0,0,34.33,0h-4.6A5.27,5.27,0,0,1,35,5.27Z"/></g></g></svg>