<svg xmlns="http://www.w3.org/2000/svg" xmlns:xlink="http://www.w3.org/1999/xlink" viewBox="0 0 41.2 41.2"><defs><style>.cls-1{fill:none;stroke-linecap:round;stroke-linejoin:round;stroke-width:2px;stroke:url(#New_Gradient_Swatch);}.cls-2{fill:#fff;}</style><linearGradient id="New_Gradient_Swatch" y1="20.6" x2="41.2" y2="20.6" gradientUnits="userSpaceOnUse"><stop offset="0" stop-color="#00bfab"/><stop offset="0.48"/><stop offset="1" stop-color="#df0000"/></linearGradient></defs><g id="Capa_2" data-name="Capa 2"><g id="OBJECTS"><path class="cls-1" d="M40.2,20.6A19.6,19.6,0,1,1,20.6,1,19.6,19.6,0,0,1,40.2,20.6Z"/><path class="cls-2" d="M26,15.6a.54.54,0,0,0-.65-.53l-7,1.39A.56.56,0,0,0,18,17v6.42a3.67,3.67,0,0,0-1.37-.26c-1.35,0-2.44.67-2.44,1.5s1.09,1.49,2.44,1.49,2.44-.67,2.44-1.49c0,0,0,0,0-.06a.3.3,0,0,0,0-.1V17.44L25,16.26v6.49a3.73,3.73,0,0,0-1.38-.26c-1.35,0-2.44.67-2.44,1.49s1.09,1.49,2.44,1.49S26,24.8,26,24a.43.43,0,0,0,0-.11Z"/></g></g></svg>