<svg xmlns="http://www.w3.org/2000/svg" viewBox="0 0 33.82 31.65"><defs><style>.cls-1{fill:#fff;}</style></defs><g id="Capa_2" data-name="Capa 2"><g id="OBJECTS"><path class="cls-1" d="M33.82,1.55A1.55,1.55,0,0,0,32,0L12.1,4a1.55,1.55,0,0,0-1.24,1.52V23.87A10.31,10.31,0,0,0,7,23.14c-3.84,0-7,1.9-7,4.25s3.12,4.26,7,4.26,7-1.91,7-4.26a.66.66,0,0,0,0-.15,1.45,1.45,0,0,0,.06-.3V6.81L30.72,3.44V22a10.42,10.42,0,0,0-3.93-.75c-3.84,0-7,1.91-7,4.26s3.12,4.25,7,4.25,7-1.9,7-4.25a.94.94,0,0,0,.08-.32Z"/></g></g></svg>